<svg width="50" height="27" viewBox="0 0 50 27" fill="none" xmlns="http://www.w3.org/2000/svg">
<path d="M41 15C43.3423 15 45 12.1881 45 8.30693C45 5.13861 43.3784 3 41 3C38.8378 3 37.3243 4.70297 37.036 7.35644L41.8649 5.33663L42.0811 5.93069L37 8.0693C37 8.14851 37 8.22772 37 8.30693C37 12.1485 38.6937 15 41 15Z" fill="#BACCCC"/>
<path d="M25 15C27.9044 15 30 11.7081 30 7.20541C30 3.49731 27.9779 1 25 1C22.1323 1 20.1838 3.27028 20 6.75136L27.2794 3.87568L27.5 4.44325L20 7.43243C20.0735 11.8216 22.1691 15 25 15Z" fill="#43D992"/>
<path d="M9.00001 15C11.3423 15 13 12.1881 13 8.30693C13 5.13861 11.3784 3 9.00001 3C6.83784 3 5.32432 4.70297 5.03603 7.35644L9.86487 5.33663L10.0811 5.93069L5 8.0693C5 8.14851 5 8.22772 5 8.30693C5 12.1485 6.6937 15 9.00001 15Z" fill="#BACCCC"/>
<path d="M45.4059 17.7839C45.1125 17.5932 44.8191 17.4407 44.5257 17.25L39.1712 19.3856L38.9511 18.8136L43.9389 16.8305C43.4254 16.3729 43.0587 15.8008 42.9487 15C42.3985 15.3051 41.7751 15.4958 41.1149 15.4958C40.4548 15.4958 39.8313 15.3051 39.2812 15C39.0611 16.4873 37.9976 17.1356 36.824 17.822C35.8337 18.3941 34.7335 19.0805 34 20.3771C34.7335 21.2542 35.357 22.3983 35.6504 24H49C48.9633 19.9576 47.0929 18.8136 45.4059 17.7839Z" fill="#BACCCC"/>
<path d="M13.2127 17.7839C12.846 17.5551 12.5159 17.3644 12.1858 17.1356L12.2225 17.25L6.86797 19.3856L6.64792 18.8136L11.7457 16.7924C11.2689 16.3348 10.9022 15.7627 10.7922 15C10.2421 15.3051 9.61859 15.4958 8.95844 15.4958C8.29829 15.4958 7.67482 15.3051 7.1247 15C6.90465 16.4873 5.84108 17.1356 4.66748 17.822C2.98044 18.8136 1.07335 19.9576 1 24H14.3496C14.6797 22.3602 15.2665 21.2161 16 20.3771C15.3032 19.0424 14.2029 18.3941 13.2127 17.7839Z" fill="#BACCCC"/>
<path d="M30.3612 18.4138C30.0951 18.2621 29.8289 18.1104 29.6008 17.9586L21.7681 20.9552L21.5399 20.3862L28.9544 17.5414C28.1179 16.9345 27.4715 16.1759 27.3194 15C26.635 15.4172 25.8365 15.6448 25 15.6448C24.1635 15.6448 23.365 15.4172 22.6806 15C22.4525 16.8207 21.0836 17.6172 19.6388 18.4517C17.5095 19.6655 15.1141 21.069 15 26H35C34.8859 20.9931 32.4905 19.6276 30.3612 18.4138Z" fill="#43D992"/>
<path d="M45.7983 17.1783C44.576 16.4348 43.5829 15.8478 43.5447 14.4C44.9962 13.187 45.9511 10.8783 45.9511 8.06087C45.9511 4.57826 43.9267 2.15217 41.0619 2.15217C38.1971 2.15217 36.1727 4.57826 36.1727 8.06087C36.1727 10.8783 37.0894 13.187 38.5791 14.4C38.5409 15.8478 37.5478 16.4348 36.3254 17.1783C35.2559 17.8044 34.11 18.5087 33.2697 19.8783C32.4675 19.0957 31.5508 18.5478 30.7105 18.0783C29.1826 17.1783 27.9985 16.4739 27.9221 14.6739C29.6791 13.2261 30.8251 10.4478 30.8251 7.04348C30.8251 2.89565 28.4186 0 24.9809 0C21.5432 0 19.1367 2.89565 19.1367 7.04348C19.1367 10.4478 20.2445 13.2261 22.0397 14.6739C22.0015 16.4739 20.7792 17.1783 19.2513 18.0783C18.411 18.587 17.4943 19.0957 16.6921 19.8783C15.8518 18.5087 14.6677 17.8044 13.6364 17.1783C12.4141 16.4348 11.4209 15.8478 11.3827 14.4C12.8342 13.187 13.7892 10.8783 13.7892 8.06087C13.7892 4.57826 11.7647 2.15217 8.89992 2.15217C6.03514 2.15217 4.0107 4.57826 4.0107 8.06087C4.0107 10.8783 4.92742 13.187 6.41711 14.4C6.37891 15.8478 5.38579 16.4348 4.16348 17.1783C2.33002 18.2739 0 19.6435 0 24.3783V24.6913H14.4385C14.3621 25.2783 14.3239 25.9435 14.3239 26.687V27H35.6761V26.687C35.6761 25.9435 35.6379 25.3174 35.5615 24.6913H50V24.3783C49.9618 19.6435 47.6318 18.2739 45.7983 17.1783ZM36.7838 8.06087C36.7838 7.98261 36.7838 7.90435 36.7838 7.82609L42.1696 5.71305L41.9404 5.12609L36.822 7.12174C37.1276 4.5 38.7319 2.8174 41.0237 2.8174C43.5829 2.8174 45.2636 4.93044 45.2636 8.06087C45.2636 11.8957 43.4683 14.6739 41.0237 14.6739C38.5791 14.713 36.7838 11.8957 36.7838 8.06087ZM19.7479 7.23913L27.5401 4.14783L27.3109 3.56087L19.7479 6.53479C19.9007 2.97392 21.9633 0.586957 24.9427 0.586957C28.0367 0.586957 30.1375 3.16957 30.1375 7.00436C30.1375 11.6609 27.9603 15.0652 24.9427 15.0652C22.0015 15.0652 19.8243 11.7783 19.7479 7.23913ZM4.62185 8.06087C4.62185 7.98261 4.62185 7.90435 4.62185 7.82609L10.0076 5.71305L9.77846 5.12609L4.66005 7.12174C4.96562 4.5 6.56991 2.8174 8.86173 2.8174C11.4209 2.8174 13.1016 4.93044 13.1016 8.06087C13.1016 11.8957 11.3063 14.6739 8.86173 14.6739C6.41712 14.713 4.62185 11.8957 4.62185 8.06087ZM0.611156 24.0652C0.725747 19.9174 2.6738 18.7435 4.43087 17.7261C5.61498 17.0217 6.76088 16.3174 6.99006 14.8304C7.56302 15.1435 8.21237 15.3391 8.89992 15.3391C9.58747 15.3391 10.2368 15.1435 10.8098 14.8304C10.9244 15.6522 11.3063 16.2 11.8029 16.6696L6.49351 18.7435L6.72269 19.3304L12.2995 17.1391L12.2613 17.0217C12.605 17.2565 12.9488 17.4913 13.3308 17.687C14.3621 18.2739 15.508 18.9783 16.272 20.3087C15.508 21.2087 14.8587 22.3826 14.5531 24.0261H0.611156V24.0652ZM14.8969 26.3739C15.0115 21.287 17.4179 19.8783 19.5569 18.587C21.0084 17.7261 22.3835 16.9044 22.6127 15.0261C23.3002 15.4565 24.1024 15.6913 24.9427 15.6913C25.783 15.6913 26.5852 15.4565 27.2727 15.0261C27.4255 16.2391 28.0749 17.0217 28.9152 17.6478L21.4668 20.5826L21.6959 21.1696L29.5646 18.0783C29.8319 18.2348 30.0611 18.3913 30.3285 18.5478C32.4675 19.8 34.874 21.2478 34.9885 26.3348H14.8969V26.3739ZM35.4087 24.0652C35.0649 22.3826 34.4538 21.2087 33.6898 20.3478C34.4538 19.0174 35.5997 18.3522 36.631 17.7261C37.8151 17.0217 38.961 16.3174 39.1902 14.8304C39.7632 15.1435 40.4125 15.3391 41.1001 15.3391C41.7876 15.3391 42.437 15.1435 43.0099 14.8304C43.1245 15.6522 43.5065 16.2391 44.0413 16.7087L38.8465 18.7435L39.0756 19.3304L44.6524 17.1391C44.958 17.3348 45.2636 17.5304 45.5691 17.687C47.3262 18.7044 49.3125 19.8783 49.3888 24.0261H35.4087V24.0652Z" fill="#0A5860"/>
</svg>
