<svg width="50" height="51" viewBox="0 0 50 51" fill="none" xmlns="http://www.w3.org/2000/svg">
<path d="M25.0199 29.7498C27.3343 29.7498 29.2098 27.8743 29.2098 25.5599C29.2098 23.2454 27.3343 21.3699 25.0199 21.3699C22.7055 21.3699 20.83 23.2454 20.83 25.5599C20.83 27.8743 22.7055 29.7498 25.0199 29.7498Z" fill="#FFE48B"/>
<path d="M17.3583 27.6349C17.5179 28.2733 17.7973 28.9118 18.1165 29.4705L18.2362 29.67L16.241 31.6652L18.8747 34.2989L20.8699 32.3037L21.0694 32.4234C21.6281 32.7426 22.2665 33.022 22.905 33.1816L23.1444 33.2614V36.0547H26.8555V33.2614L27.095 33.1816C27.7334 33.022 28.3719 32.7426 28.9306 32.4234L29.1301 32.3037L31.1253 34.2989L33.759 31.6652L31.7638 29.67L31.8835 29.4705C32.2027 28.8719 32.482 28.2733 32.6417 27.6349L32.7215 27.3955H35.5147V23.6844H32.7215L32.6417 23.4449C32.482 22.8065 32.2027 22.168 31.8835 21.6093L31.7638 21.4098L33.759 19.4146L31.1253 16.7809L29.1301 18.7761L28.9306 18.6564C28.332 18.3372 27.7334 18.0579 27.095 17.8982L26.8555 17.8184V15.0251H23.1843V17.8184L22.9449 17.8982C22.3064 18.0579 21.668 18.3372 21.1093 18.6564L20.9098 18.7761L18.9146 16.7809L16.2809 19.4146L18.2761 21.4098L18.1564 21.6093C17.8372 22.2079 17.5578 22.8065 17.3982 23.4449L17.3184 23.6844H14.4852V27.3955H17.3184L17.3583 27.6349ZM25.0199 20.6915C27.6935 20.6915 29.8882 22.8863 29.8882 25.5599C29.8882 28.2334 27.6935 30.4282 25.0199 30.4282C22.3464 30.4282 20.1516 28.2334 20.1516 25.5599C20.1516 22.8464 22.3464 20.6915 25.0199 20.6915Z" fill="#F1F5F8"/>
<path d="M4.8284 39.8855C5.50677 39.2071 6.58419 38.7681 7.70151 38.7282C8.89863 38.6883 10.0159 39.0475 10.7741 39.8456C11.5323 40.6037 11.9314 41.6812 11.8915 42.9182C11.8515 44.0355 11.4126 45.1129 10.7342 45.7913L6.86352 49.662L12.2107 49.9413L16.8396 45.3124L16.5203 39.0874L21.9473 33.6205C21.6281 33.5008 21.3088 33.3412 20.9896 33.1816L18.8747 35.2965L15.3232 31.745L17.4381 29.6301C17.2785 29.3108 17.1189 28.9916 16.9992 28.6724L11.5722 34.0994L5.34715 33.7801L0.718262 38.409L0.99759 43.7562L4.8284 39.8855Z" fill="#FFE48B"/>
<path d="M31.1652 15.8232L34.7166 19.3747L32.6017 21.4896C32.7613 21.8089 32.8811 22.1281 33.0407 22.4473L38.4676 17.0204L44.6927 17.3396L49.3216 12.7107L49.0423 7.36353L45.1716 11.2342C43.7749 12.6309 40.9018 12.9501 39.2258 11.314C37.5898 9.67797 37.909 6.76497 39.3056 5.36832L43.1763 1.49761L37.8292 1.21828L33.2003 5.84717L33.5195 12.0722L28.1324 17.4992C28.4517 17.6189 28.7709 17.7785 29.0901 17.9381L31.1652 15.8232Z" fill="#FFE48B"/>
<path d="M5.30726 40.3244C5.86592 39.7658 6.78372 39.4066 7.74142 39.3268C8.77893 39.2869 9.69673 39.6061 10.2953 40.2446C10.9338 40.8831 11.253 41.8009 11.2131 42.7985C11.1732 43.7562 10.814 44.674 10.2155 45.2326L5.30726 50.1409L12.4102 50.5L17.4781 45.4322L17.1588 39.2071L22.506 33.8599V36.6931H27.5339V33.7402C28.0527 33.5806 28.5714 33.3811 29.0503 33.1018L31.1652 35.2167L34.7167 31.6652L32.6018 29.5503C32.8811 29.0714 33.0806 28.5527 33.2402 28.0339H36.1931V23.006H33.3599L38.7071 17.6588L44.9322 17.978L50 12.9102L49.6409 5.80726L44.7326 10.7554C43.5754 11.9126 41.1014 12.1919 39.7047 10.8352C38.348 9.47845 38.6273 6.96448 39.7845 5.80726L44.7326 0.899042L37.6297 0.5L32.5619 5.56784L32.8811 11.7929L27.5339 17.1401V14.3069H22.506V17.2598C21.9872 17.4194 21.4685 17.6189 20.9497 17.8982L18.8348 15.7833L15.2833 19.3348L17.3982 21.4497C17.1189 21.9286 16.9194 22.4473 16.7598 22.9661H13.8069V27.994H16.6401L11.2929 33.3412L5.06784 33.0219L0 38.0898L0.399042 45.1927L5.30726 40.3244ZM33.5595 12.0323L33.2402 5.80726L37.8691 1.17837L43.2163 1.4577L39.3456 5.32841C37.9489 6.72506 37.6297 9.59816 39.2658 11.2741C40.9018 12.9102 43.8148 12.591 45.2115 11.1943L49.0822 7.32362L49.3615 12.6708L44.7326 17.2997L38.5076 16.9804L33.0806 22.4074C32.9609 22.0882 32.8013 21.769 32.6417 21.4497L34.7566 19.3348L31.2051 15.7833L29.0902 17.8982C28.7709 17.7386 28.4517 17.579 28.1325 17.4593L33.5595 12.0323ZM14.4453 27.3954V23.6844H17.2785L17.3583 23.4449C17.518 22.8065 17.7973 22.168 18.1165 21.6093L18.2362 21.4098L16.241 19.4146L18.8747 16.7809L20.8699 18.7761L21.0694 18.6564C21.668 18.3372 22.2666 18.0579 22.905 17.8982L23.1445 17.8184V15.0251H26.8556V17.8184L27.095 17.8982C27.7334 18.0579 28.3719 18.3372 28.9306 18.6564L29.1301 18.7761L31.1253 16.7809L33.759 19.4146L31.7638 21.4098L31.8835 21.6093C32.2027 22.2079 32.482 22.8065 32.6417 23.4449L32.7215 23.6844H35.5148V27.3954H32.7215L32.6417 27.6349C32.482 28.2733 32.2027 28.9118 31.8835 29.4705L31.7638 29.67L33.759 31.6652L31.1253 34.2989L29.1301 32.3037L28.9306 32.4234C28.332 32.7426 27.7334 33.0219 27.095 33.1816L26.8556 33.2614V36.0547H23.1844V33.2614L22.9449 33.1816C22.3065 33.0219 21.668 32.7426 21.1093 32.4234L20.9098 32.3037L18.9146 34.2989L16.2809 31.6652L18.2761 29.67L18.1564 29.4705C17.8372 28.8719 17.5579 28.2733 17.3982 27.6349L17.3184 27.3954H14.4453ZM5.30726 33.7402L11.5323 34.0595L16.9593 28.6325C17.079 28.9517 17.2386 29.2709 17.3982 29.5902L15.2833 31.7051L18.8348 35.2566L20.9497 33.1417C21.269 33.3013 21.5882 33.4609 21.9074 33.5806L16.4805 39.0475L16.7997 45.2725L12.1708 49.9014L6.82363 49.6221L10.6943 45.7514C11.3727 45.073 11.8117 43.9956 11.8516 42.8783C11.8915 41.6812 11.5323 40.5638 10.7342 39.8057C9.97605 39.0475 8.89865 38.6484 7.66162 38.6883C6.5443 38.7282 5.46688 39.1672 4.78851 39.8456L0.917798 43.7163L0.63847 38.3691L5.30726 33.7402Z" fill="#F1A95F"/>
<path d="M25.0199 30.3883C27.6935 30.3883 29.8882 28.1935 29.8882 25.52C29.8882 22.8464 27.6935 20.6516 25.0199 20.6516C22.3463 20.6516 20.1516 22.8464 20.1516 25.52C20.1516 28.2334 22.3463 30.3883 25.0199 30.3883ZM25.0199 21.33C27.3344 21.33 29.2099 23.2055 29.2099 25.52C29.2099 27.8344 27.3344 29.7099 25.0199 29.7099C22.7055 29.7099 20.83 27.8344 20.83 25.52C20.83 23.2055 22.7055 21.33 25.0199 21.33Z" fill="#F1A95F"/>
</svg>
