<svg width="101" height="50" viewBox="0 0 101 50" xmlns="http://www.w3.org/2000/svg">
<path d="M53.5067 11.364H54.9213C55.21 11.364 55.4121 11.4379 55.5218 11.5919C55.6315 11.7458 55.6604 11.9429 55.6084 12.1954C55.5507 12.448 55.4294 12.6512 55.2389 12.8113C55.0484 12.9715 54.8059 13.0515 54.5171 13.0515H53.166L53.5067 11.364ZM52.9351 14.2156H54.4017C54.7366 14.2156 54.9617 14.3079 55.0715 14.4866C55.1812 14.6652 55.21 14.8869 55.1523 15.1517C55.1003 15.4104 54.9733 15.6321 54.7712 15.8169C54.5691 16.0016 54.3151 16.094 54.0206 16.094H52.5655L52.9351 14.2156ZM54.0668 17.2765C54.598 17.2765 55.0484 17.1903 55.4064 17.0117C55.7701 16.8331 56.053 16.5867 56.2667 16.2726C56.4803 15.9524 56.6305 15.5828 56.7171 15.1579C56.7921 14.7699 56.7633 14.4434 56.6305 14.1663C56.4977 13.8953 56.3187 13.6859 56.0992 13.5504C56.2263 13.495 56.3648 13.4087 56.5092 13.2917C56.6536 13.1747 56.7921 13.0207 56.9134 12.8298C57.0346 12.6389 57.1213 12.411 57.1732 12.1523C57.2541 11.752 57.231 11.4071 57.0924 11.1053C56.9538 10.8097 56.7286 10.5756 56.4053 10.4155C56.0877 10.2554 55.6777 10.1692 55.1812 10.1692H52.45C52.3865 10.1692 52.3288 10.1938 52.271 10.2431C52.2133 10.2923 52.1786 10.3539 52.1671 10.4278L50.8564 17.024C50.8448 17.0979 50.8564 17.1595 50.8968 17.2088C50.9372 17.2581 50.9834 17.2827 51.0469 17.2827H54.0668V17.2765ZM62.393 16.7038C62.9069 16.248 63.2649 15.5397 63.4612 14.5728L64.2811 10.434C64.2926 10.3601 64.2811 10.2985 64.2464 10.2492C64.2118 10.1999 64.1598 10.1753 64.0963 10.1753H63.0512C62.9877 10.1753 62.93 10.1999 62.8722 10.2492C62.8145 10.2985 62.7798 10.3601 62.7683 10.434L61.9426 14.5605C61.8502 15.0593 61.6654 15.435 61.3941 15.6752C61.1227 15.9216 60.7762 16.0386 60.3547 16.0386C59.9217 16.0386 59.633 15.9154 59.4886 15.6752C59.3443 15.4289 59.3212 15.0593 59.4193 14.5605L60.245 10.434C60.2566 10.3601 60.245 10.2985 60.2104 10.2492C60.1757 10.1999 60.1238 10.1753 60.0545 10.1753H59.0151C58.9459 10.1753 58.8823 10.1999 58.8304 10.2492C58.7784 10.2985 58.7438 10.3601 58.7322 10.434L57.9123 14.5728C57.8199 15.0593 57.8084 15.4781 57.8834 15.8292C57.9585 16.1803 58.1086 16.4697 58.328 16.7038C58.5474 16.9316 58.8188 17.1041 59.148 17.215C59.4771 17.3258 59.8466 17.3812 60.2508 17.3812C61.1631 17.3812 61.8791 17.1534 62.393 16.7038ZM67.0757 11.444H68.2998C68.6463 11.444 68.8888 11.5303 69.0158 11.7089C69.1486 11.8875 69.1833 12.1277 69.1255 12.4295C69.062 12.7313 68.9292 12.9715 68.7271 13.1378C68.525 13.304 68.2537 13.3903 67.9072 13.3903H66.6831L67.0757 11.444ZM65.6784 17.2765C65.7477 17.2765 65.8112 17.2519 65.8632 17.2026C65.9152 17.1534 65.9498 17.0918 65.9614 17.0179L66.4348 14.6775H67.5839L68.2768 16.9994C68.2941 17.0548 68.3229 17.1103 68.3691 17.178C68.4096 17.2396 68.4904 17.2765 68.6001 17.2765H69.6568C69.7145 17.2765 69.7665 17.2519 69.8127 17.2088C69.8588 17.1657 69.8877 17.1164 69.905 17.061C69.9108 17.0363 69.9108 17.0117 69.9108 16.9994C69.905 16.9871 69.905 16.9686 69.8993 16.9501L69.062 14.4126C69.4662 14.2525 69.8127 14.0062 70.1014 13.6736C70.3901 13.341 70.5806 12.9283 70.6788 12.4356C70.8231 11.7027 70.7076 11.1484 70.3323 10.7543C69.957 10.3662 69.368 10.1692 68.577 10.1692H66.0595C65.9902 10.1692 65.9267 10.1938 65.869 10.2431C65.8112 10.2923 65.7766 10.3539 65.765 10.4278L64.4601 17.024C64.4485 17.0979 64.4543 17.1595 64.489 17.2088C64.5178 17.2581 64.5698 17.2827 64.6391 17.2827H65.6784V17.2765ZM75.1306 17.0487C75.6156 16.8269 76.0198 16.5128 76.3431 16.1002C76.6665 15.6875 76.8801 15.1887 76.9898 14.6097L77.2208 13.5011C77.2323 13.4272 77.2208 13.3656 77.1861 13.3164C77.1515 13.2671 77.0995 13.2425 77.0302 13.2425H74.6975C74.6282 13.2425 74.5647 13.2671 74.5127 13.3164C74.4608 13.3656 74.4261 13.4272 74.4146 13.5011L74.2818 14.1478C74.2702 14.2156 74.2818 14.2772 74.3164 14.3264C74.3511 14.3757 74.403 14.4003 74.4665 14.4003H75.5059L75.4597 14.6528C75.3962 14.9793 75.2865 15.2441 75.1248 15.4535C74.9631 15.6629 74.7668 15.8169 74.5474 15.9154C74.3222 16.014 74.0739 16.0632 73.8083 16.0632C73.4157 16.0632 73.1212 15.9462 72.9306 15.7183C72.7343 15.4905 72.6824 15.1086 72.7632 14.5851C72.8152 14.2895 72.8671 13.9877 72.9306 13.6921C72.9884 13.3964 73.0577 13.1008 73.127 12.8113C73.2425 12.3063 73.4388 11.9368 73.7159 11.715C73.9931 11.4933 74.328 11.3825 74.7264 11.3825C74.992 11.3825 75.1999 11.4256 75.3558 11.5118C75.5059 11.598 75.6214 11.7089 75.6907 11.8321C75.7657 11.9552 75.8061 12.0784 75.8177 12.2016C75.835 12.257 75.8581 12.294 75.887 12.3248C75.9158 12.3494 75.962 12.3679 76.0255 12.3679H77.2035C77.267 12.3679 77.3247 12.3433 77.3709 12.3001C77.4171 12.257 77.446 12.2016 77.4517 12.14C77.4922 11.9183 77.4691 11.6842 77.394 11.4379C77.3189 11.1915 77.1804 10.9698 76.9783 10.7604C76.7762 10.5572 76.5163 10.3847 76.1815 10.2554C75.8523 10.126 75.4539 10.0645 74.9804 10.0645C74.3973 10.0645 73.8718 10.1692 73.4041 10.3847C72.9364 10.6003 72.5438 10.9021 72.232 11.3024C71.9202 11.7027 71.695 12.1831 71.5737 12.7559C71.5045 13.0515 71.4352 13.3656 71.3717 13.6982C71.3024 14.0308 71.2446 14.3387 71.1984 14.6344C71.106 15.2133 71.1291 15.7122 71.2793 16.1187C71.4294 16.5252 71.695 16.8393 72.0761 17.0548C72.4572 17.2704 72.9422 17.3751 73.5427 17.3751C74.1086 17.3812 74.6455 17.2704 75.1306 17.0487ZM81.1645 11.7089L81.5744 14.6282H79.6055L81.1645 11.7089ZM78.0118 17.2765C78.0984 17.2765 78.1677 17.2519 78.2197 17.2088C78.2717 17.1657 78.3121 17.1164 78.341 17.0733L78.9761 15.9401H81.6553L81.8458 17.0487C81.8574 17.1103 81.8862 17.1657 81.9209 17.2088C81.9613 17.2581 82.0248 17.2827 82.123 17.2827H83.093C83.1623 17.2827 83.22 17.2581 83.2662 17.2026C83.3124 17.1472 83.324 17.0733 83.3124 16.9809L82.3424 10.4586C82.3366 10.3847 82.3135 10.3231 82.2673 10.2677C82.2211 10.2123 82.1518 10.1876 82.0479 10.1876H80.7718C80.6621 10.1876 80.5755 10.2123 80.5178 10.2677C80.4543 10.3231 80.4023 10.3847 80.3677 10.4586L76.8166 16.9748C76.7762 17.0425 76.7762 17.1103 76.805 17.178C76.8339 17.2457 76.8859 17.2765 76.961 17.2765H78.0118ZM88.5149 16.8577C89.0403 16.5067 89.3694 15.9955 89.5022 15.318C89.5831 14.9115 89.5715 14.5666 89.4618 14.2833C89.3521 14 89.1385 13.7598 88.8267 13.575C88.5149 13.3841 88.0933 13.2301 87.5621 13.107C87.2157 13.0084 86.9385 12.9099 86.7422 12.8298C86.5401 12.7436 86.4073 12.645 86.3323 12.5342C86.2572 12.4233 86.2399 12.2878 86.2687 12.1215C86.3265 11.869 86.4593 11.6842 86.6787 11.5611C86.8923 11.4379 87.158 11.3763 87.4698 11.3763C87.7411 11.3763 87.9605 11.4441 88.1222 11.5734C88.2839 11.7027 88.3647 11.8567 88.3647 12.0353C88.3878 12.1031 88.4225 12.1523 88.4687 12.177C88.5149 12.2016 88.5668 12.2201 88.6303 12.2201H89.7159C89.7736 12.2201 89.8198 12.1954 89.866 12.1523C89.9064 12.1092 89.9295 12.0599 89.9353 12.0045C89.9641 11.7951 89.9411 11.5795 89.8487 11.3578C89.7621 11.1361 89.6119 10.9267 89.4041 10.7296C89.1962 10.5325 88.9421 10.3724 88.6361 10.2554C88.3301 10.1322 87.9721 10.0706 87.5679 10.0706C86.7884 10.0706 86.1533 10.2492 85.6682 10.6003C85.1774 10.9575 84.8772 11.4379 84.7559 12.0476C84.6751 12.4541 84.6866 12.799 84.7964 13.0946C84.9061 13.3841 85.1082 13.6243 85.4026 13.8214C85.6913 14.0123 86.0667 14.1663 86.5228 14.271C86.8923 14.3695 87.1868 14.4681 87.412 14.5543C87.6372 14.6405 87.7931 14.7391 87.8855 14.8499C87.9721 14.9608 88.001 15.1024 87.9605 15.2749C87.9086 15.5213 87.7642 15.7122 87.5217 15.8538C87.2792 15.9955 86.9501 16.0694 86.5344 16.0694C86.2976 16.0694 86.1071 16.0324 85.9569 15.9647C85.8068 15.8908 85.6913 15.8046 85.6105 15.6937C85.5297 15.5828 85.4835 15.472 85.4604 15.3611C85.4257 15.3057 85.3911 15.2626 85.3564 15.2256C85.316 15.1887 85.2583 15.1702 85.1774 15.1702H84.1381C84.0804 15.1702 84.0342 15.1948 83.988 15.2379C83.9476 15.2811 83.9245 15.3303 83.9187 15.3858C83.8667 15.7307 83.9245 16.0571 84.0919 16.365C84.2594 16.673 84.5365 16.9193 84.9292 17.1041C85.3218 17.2889 85.8184 17.3812 86.4246 17.3812C87.2908 17.3812 87.9894 17.2088 88.5149 16.8577ZM53.5067 23.5032H54.9213C55.21 23.5032 55.4121 23.5771 55.5218 23.7311C55.6315 23.8851 55.6604 24.0821 55.6084 24.3347C55.5507 24.5872 55.4294 24.7904 55.2389 24.9506C55.0484 25.1107 54.8059 25.1907 54.5171 25.1907H53.166L53.5067 23.5032ZM52.9351 26.3548H54.4017C54.7366 26.3548 54.9617 26.4472 55.0715 26.6258C55.1812 26.8044 55.21 27.0261 55.1523 27.2909C55.1003 27.5496 54.9733 27.7713 54.7712 27.9561C54.5691 28.1409 54.3151 28.2333 54.0206 28.2333H52.5655L52.9351 26.3548ZM54.0668 29.4219C54.598 29.4219 55.0484 29.3357 55.4064 29.1571C55.7701 28.9785 56.053 28.7321 56.2667 28.418C56.4803 28.0978 56.6305 27.7282 56.7171 27.3033C56.7921 26.9152 56.7633 26.5888 56.6305 26.3117C56.4977 26.0407 56.3187 25.8313 56.0992 25.6958C56.2263 25.6403 56.3648 25.5541 56.5092 25.4371C56.6536 25.3201 56.7921 25.1661 56.9134 24.9752C57.0346 24.7843 57.1213 24.5564 57.1732 24.2977C57.2541 23.8974 57.231 23.5525 57.0924 23.2507C56.9538 22.9551 56.7286 22.721 56.4053 22.5609C56.0877 22.4008 55.6777 22.3145 55.1812 22.3145H52.45C52.3865 22.3145 52.3288 22.3392 52.271 22.3884C52.2133 22.4377 52.1786 22.4993 52.1671 22.5732L50.8564 29.1694C50.8448 29.2433 50.8564 29.3049 50.8968 29.3542C50.9372 29.4034 50.9834 29.4281 51.0469 29.4281H54.0668V29.4219ZM62.393 28.843C62.9069 28.3872 63.2649 27.6789 63.4612 26.712L64.2811 22.5732C64.2926 22.4993 64.2811 22.4377 64.2464 22.3884C64.2118 22.3392 64.1598 22.3145 64.0963 22.3145H63.0512C62.9877 22.3145 62.93 22.3392 62.8722 22.3884C62.8145 22.4377 62.7798 22.4993 62.7683 22.5732L61.9426 26.6997C61.8502 27.1986 61.6654 27.5742 61.3941 27.8144C61.1227 28.0608 60.7762 28.1778 60.3547 28.1778C59.9217 28.1778 59.633 28.0546 59.4886 27.8144C59.3443 27.5681 59.3212 27.1986 59.4193 26.6997L60.245 22.5732C60.2566 22.4993 60.245 22.4377 60.2104 22.3884C60.1757 22.3392 60.1238 22.3145 60.0545 22.3145H59.0151C58.9459 22.3145 58.8823 22.3392 58.8304 22.3884C58.7784 22.4377 58.7438 22.4993 58.7322 22.5732L57.9065 26.712C57.8141 27.1986 57.8026 27.6174 57.8777 27.9684C57.9527 28.3195 58.1028 28.6089 58.3223 28.843C58.5417 29.0709 58.8131 29.2433 59.1422 29.3542C59.4713 29.465 59.8408 29.5205 60.245 29.5205C61.1631 29.5205 61.8791 29.2926 62.393 28.843ZM68.8542 28.997C69.3796 28.6459 69.7087 28.1347 69.8415 27.4572C69.9224 27.0507 69.9108 26.7058 69.8011 26.4225C69.6914 26.1392 69.4778 25.899 69.166 25.7143C68.8542 25.5233 68.4327 25.3694 67.9014 25.2462C67.555 25.1476 67.2778 25.0491 67.0815 24.969C66.8794 24.8828 66.7466 24.7843 66.6716 24.6734C66.5965 24.5625 66.5792 24.427 66.608 24.2608C66.6658 24.0082 66.7986 23.8235 67.018 23.7003C67.2316 23.5771 67.4973 23.5155 67.8091 23.5155C68.0804 23.5155 68.2998 23.5833 68.4615 23.7126C68.6232 23.8419 68.704 23.9959 68.704 24.1745C68.7271 24.2423 68.7618 24.2915 68.808 24.3162C68.8542 24.3408 68.9061 24.3593 68.9696 24.3593H70.0552C70.1129 24.3593 70.1591 24.3347 70.2053 24.2915C70.2457 24.2484 70.2688 24.1992 70.2746 24.1437C70.3034 23.9343 70.2804 23.7188 70.188 23.497C70.1014 23.2753 69.9512 23.0659 69.7434 22.8688C69.5355 22.6718 69.2814 22.5116 68.9754 22.3946C68.6694 22.2714 68.3114 22.2098 67.9072 22.2098C67.1277 22.2098 66.4926 22.3884 66.0075 22.7395C65.5167 23.0967 65.2165 23.5771 65.0952 24.1868C65.0144 24.5933 65.0259 24.9382 65.1357 25.2339C65.2454 25.5233 65.4475 25.7635 65.7419 25.9606C66.0306 26.1515 66.406 26.3055 66.8621 26.4102C67.2316 26.5088 67.5261 26.6073 67.7513 26.6935C67.9765 26.7797 68.1324 26.8783 68.2248 26.9892C68.3114 27.1 68.3403 27.2417 68.2998 27.4141C68.2479 27.6605 68.1035 27.8514 67.861 27.9931C67.6185 28.1347 67.2894 28.2086 66.8736 28.2086C66.6369 28.2086 66.4464 28.1717 66.2962 28.1039C66.1461 28.03 66.0306 27.9438 65.9498 27.8329C65.869 27.7221 65.8228 27.6112 65.7997 27.5003C65.765 27.4449 65.7304 27.4018 65.6957 27.3648C65.6553 27.3279 65.5976 27.3094 65.5167 27.3094H64.4774C64.4197 27.3094 64.3735 27.334 64.3273 27.3772C64.2869 27.4203 64.2638 27.4695 64.258 27.525C64.206 27.8699 64.2638 28.1963 64.4312 28.5042C64.5987 28.8122 64.8758 29.0585 65.2685 29.2433C65.6611 29.4281 66.1577 29.5205 66.7639 29.5205C67.6301 29.5205 68.3287 29.348 68.8542 28.997ZM71.7874 29.4219C71.8509 29.4219 71.9086 29.3973 71.9606 29.348C72.0126 29.2987 72.0472 29.2372 72.0588 29.1632L73.381 22.567C73.3926 22.4931 73.381 22.4316 73.3406 22.3823C73.3002 22.333 73.254 22.3084 73.1905 22.3084H72.105C72.0414 22.3084 71.9837 22.333 71.9317 22.3823C71.8798 22.4316 71.8451 22.4931 71.8336 22.567L70.5113 29.1632C70.4998 29.2372 70.5113 29.2987 70.546 29.348C70.5806 29.3973 70.6326 29.4219 70.7019 29.4219H71.7874ZM74.6282 29.4219C74.6975 29.4219 74.761 29.3973 74.813 29.348C74.865 29.2987 74.8996 29.2372 74.9112 29.1632L75.7195 25.0984L77.4402 29.2372C77.4517 29.2618 77.4748 29.2987 77.5095 29.348C77.5441 29.3973 77.6076 29.4219 77.7058 29.4219H78.5719C78.6354 29.4219 78.6932 29.3973 78.7451 29.348C78.7971 29.2987 78.8317 29.2372 78.8433 29.1694L80.154 22.5732C80.1656 22.4993 80.154 22.4377 80.1194 22.3884C80.0847 22.3392 80.0328 22.3145 79.9635 22.3145H79.005C78.9357 22.3145 78.8722 22.3392 78.8202 22.3884C78.7682 22.4377 78.7336 22.4993 78.722 22.5732L77.8848 26.7613L76.1815 22.4993C76.1757 22.4685 76.1526 22.4254 76.1122 22.3823C76.0717 22.3392 76.0082 22.3145 75.9101 22.3145H75.0555C74.9862 22.3145 74.9227 22.3392 74.8707 22.3884C74.8188 22.4377 74.7841 22.4993 74.7726 22.5732L73.4619 29.1694C73.4503 29.2433 73.4619 29.3049 73.5023 29.3542C73.5427 29.4034 73.5889 29.4281 73.6524 29.4281H74.6282V29.4219ZM84.831 29.4219C84.9003 29.4219 84.9638 29.3973 85.0158 29.348C85.0677 29.2987 85.1024 29.2372 85.1139 29.1632L85.2756 28.3626C85.2872 28.2887 85.2756 28.2271 85.241 28.1778C85.2063 28.1285 85.1544 28.1039 85.0851 28.1039H81.9266L82.2615 26.4595H85.1255C85.1948 26.4595 85.2583 26.4348 85.3102 26.3856C85.3622 26.3363 85.3969 26.2809 85.4084 26.2131L85.5585 25.4617C85.5701 25.3878 85.5585 25.3262 85.5239 25.277C85.4892 25.2277 85.4373 25.2031 85.368 25.2031H82.4983L82.8216 23.6079H85.905C85.9743 23.6079 86.0378 23.5833 86.0897 23.534C86.1417 23.4847 86.1764 23.4293 86.1879 23.3616L86.3496 22.5486C86.3611 22.4747 86.3496 22.4131 86.3149 22.3638C86.2803 22.3145 86.2283 22.2899 86.159 22.2899H81.8516C81.7881 22.2899 81.7303 22.3145 81.6726 22.3638C81.6148 22.4131 81.5802 22.4747 81.5687 22.5486L80.2579 29.1448C80.2464 29.2187 80.2579 29.2803 80.2984 29.3295C80.3388 29.3788 80.385 29.4034 80.4485 29.4034H84.831V29.4219ZM90.7783 28.997C91.3037 28.6459 91.6329 28.1347 91.7657 27.4572C91.8465 27.0507 91.8349 26.7058 91.7252 26.4225C91.6155 26.1392 91.4019 25.899 91.0901 25.7143C90.7783 25.5233 90.3568 25.3694 89.8256 25.2462C89.4791 25.1476 89.202 25.0491 89.0057 24.969C88.8036 24.8828 88.6708 24.7843 88.5957 24.6734C88.5206 24.5625 88.5033 24.427 88.5322 24.2608C88.5899 24.0082 88.7227 23.8235 88.9421 23.7003C89.1558 23.5771 89.4214 23.5155 89.7332 23.5155C90.0046 23.5155 90.224 23.5833 90.3857 23.7126C90.5473 23.8419 90.6282 23.9959 90.6282 24.1745C90.6513 24.2423 90.6859 24.2915 90.7321 24.3162C90.7783 24.3408 90.8303 24.3593 90.8938 24.3593H91.9793C92.037 24.3593 92.0832 24.3347 92.1294 24.2915C92.1698 24.2484 92.1929 24.1992 92.1987 24.1437C92.2276 23.9343 92.2045 23.7188 92.1121 23.497C92.0255 23.2753 91.8754 23.0659 91.6675 22.8688C91.4596 22.6718 91.2056 22.5116 90.8996 22.3946C90.5935 22.2714 90.2355 22.2098 89.8313 22.2098C89.0518 22.2098 88.4167 22.3884 87.9317 22.7395C87.4409 23.0967 87.1406 23.5771 87.0194 24.1868C86.9385 24.5933 86.9501 24.9382 87.0598 25.2339C87.1695 25.5233 87.3716 25.7635 87.6661 25.9606C87.9548 26.1515 88.3301 26.3055 88.7862 26.4102C89.1558 26.5088 89.4503 26.6073 89.6754 26.6935C89.9006 26.7797 90.0565 26.8783 90.1489 26.9892C90.2355 27.1 90.2644 27.2417 90.224 27.4141C90.172 27.6605 90.0277 27.8514 89.7852 27.9931C89.5426 28.1347 89.2135 28.2086 88.7978 28.2086C88.5611 28.2086 88.3705 28.1717 88.2204 28.1039C88.0703 28.03 87.9548 27.9438 87.8739 27.8329C87.7931 27.7221 87.7469 27.6112 87.7238 27.5003C87.6892 27.4449 87.6545 27.4018 87.6199 27.3648C87.5795 27.3279 87.5217 27.3094 87.4409 27.3094H86.4016C86.3438 27.3094 86.2976 27.334 86.2514 27.3772C86.211 27.4203 86.1879 27.4695 86.1821 27.525C86.1302 27.8699 86.1879 28.1963 86.3554 28.5042C86.5228 28.8122 86.8 29.0585 87.1926 29.2433C87.5852 29.4281 88.0818 29.5205 88.6881 29.5205C89.5542 29.5205 90.2528 29.348 90.7783 28.997ZM96.9681 28.997C97.4935 28.6459 97.8227 28.1347 97.9555 27.4572C98.0363 27.0507 98.0247 26.7058 97.915 26.4225C97.8053 26.1392 97.5917 25.899 97.2799 25.7143C96.9681 25.5233 96.5466 25.3694 96.0154 25.2462C95.6689 25.1476 95.3918 25.0491 95.1955 24.969C94.9934 24.8828 94.8606 24.7843 94.7855 24.6734C94.7104 24.5625 94.6931 24.427 94.722 24.2608C94.7797 24.0082 94.9125 23.8235 95.1319 23.7003C95.3456 23.5771 95.6112 23.5155 95.923 23.5155C96.1944 23.5155 96.4138 23.5833 96.5755 23.7126C96.7371 23.8419 96.818 23.9959 96.818 24.1745C96.8411 24.2423 96.8757 24.2915 96.9219 24.3162C96.9681 24.3408 97.0201 24.3593 97.0836 24.3593H98.1691C98.2268 24.3593 98.273 24.3347 98.3192 24.2915C98.3596 24.2484 98.3827 24.1992 98.3885 24.1437C98.4174 23.9343 98.3943 23.7188 98.3019 23.497C98.2153 23.2753 98.0652 23.0659 97.8573 22.8688C97.6494 22.6718 97.3954 22.5116 97.0893 22.3946C96.7833 22.2714 96.4253 22.2098 96.0211 22.2098C95.2416 22.2098 94.6065 22.3884 94.1215 22.7395C93.6307 23.0967 93.3304 23.5771 93.2092 24.1868C93.1283 24.5933 93.1399 24.9382 93.2496 25.2339C93.3593 25.5233 93.5614 25.7635 93.8559 25.9606C94.1446 26.1515 94.5199 26.3055 94.976 26.4102C95.3456 26.5088 95.6401 26.6073 95.8652 26.6935C96.0904 26.7797 96.2463 26.8783 96.3387 26.9892C96.4253 27.1 96.4542 27.2417 96.4138 27.4141C96.3618 27.6605 96.2175 27.8514 95.975 27.9931C95.7324 28.1347 95.4033 28.2086 94.9876 28.2086C94.7509 28.2086 94.5603 28.1717 94.4102 28.1039C94.2601 28.03 94.1446 27.9438 94.0637 27.8329C93.9829 27.7221 93.9367 27.6112 93.9136 27.5003C93.879 27.4449 93.8443 27.4018 93.8097 27.3648C93.7693 27.3279 93.7115 27.3094 93.6307 27.3094H92.5914C92.5336 27.3094 92.4874 27.334 92.4412 27.3772C92.4008 27.4203 92.3777 27.4695 92.3719 27.525C92.32 27.8699 92.3777 28.1963 92.5452 28.5042C92.7126 28.8122 92.9898 29.0585 93.3824 29.2433C93.775 29.4281 94.2716 29.5205 94.8779 29.5205C95.744 29.5205 96.4427 29.348 96.9681 28.997ZM52.092 41.5611C52.1613 41.5611 52.2248 41.5365 52.2768 41.4872C52.3288 41.438 52.3634 41.3764 52.375 41.3025L52.9004 38.6849H55.4756L54.9502 41.3025C54.9387 41.3764 54.9502 41.438 54.9906 41.4872C55.031 41.5365 55.0772 41.5611 55.1407 41.5611H56.1801C56.2494 41.5611 56.3129 41.5365 56.3648 41.4872C56.4168 41.438 56.4515 41.3764 56.463 41.3025L57.7737 34.7124C57.7853 34.6385 57.7737 34.5769 57.7391 34.5277C57.7044 34.4784 57.6525 34.4538 57.5832 34.4538H56.5438C56.4803 34.4538 56.4226 34.4784 56.3706 34.5277C56.3187 34.5769 56.284 34.6385 56.2725 34.7124L55.7586 37.2499H53.1833L53.6857 34.7124C53.6972 34.6385 53.6857 34.5769 53.651 34.5277C53.6164 34.4784 53.5644 34.4538 53.4951 34.4538H52.4558C52.3923 34.4538 52.3346 34.4784 52.2768 34.5277C52.2191 34.5769 52.1844 34.6385 52.1729 34.7124L50.8622 41.3086C50.8506 41.3825 50.8622 41.4441 50.9026 41.4934C50.943 41.5427 50.9892 41.5673 51.0527 41.5673H52.092V41.5611ZM62.7856 40.9822C63.2995 40.5264 63.6575 39.8182 63.8538 38.8512L64.6737 34.7124C64.6853 34.6385 64.6737 34.5769 64.6391 34.5277C64.6044 34.4784 64.5525 34.4538 64.489 34.4538H63.4439C63.3803 34.4538 63.3226 34.4784 63.2649 34.5277C63.2071 34.5769 63.1725 34.6385 63.1609 34.7124L62.3352 38.8389C62.2428 39.3378 62.0581 39.7135 61.7867 39.9537C61.5153 40.2 61.1689 40.317 60.7474 40.317C60.3143 40.317 60.0256 40.1939 59.8813 39.9537C59.7369 39.7073 59.7138 39.3378 59.812 38.8389L60.6377 34.7124C60.6492 34.6385 60.6377 34.5769 60.603 34.5277C60.5684 34.4784 60.5164 34.4538 60.4471 34.4538H59.4078C59.3385 34.4538 59.275 34.4784 59.223 34.5277C59.171 34.5769 59.1364 34.6385 59.1249 34.7124L58.2992 38.8512C58.2068 39.3378 58.1952 39.7566 58.2703 40.1076C58.3454 40.4587 58.4955 40.7482 58.7149 40.9822C58.9343 41.2101 59.2057 41.3825 59.5348 41.4934C59.8639 41.6043 60.2335 41.6597 60.6377 41.6597C61.55 41.6597 62.2659 41.4318 62.7856 40.9822ZM67.3529 35.6486H68.7675C69.0562 35.6486 69.2583 35.7225 69.3681 35.8765C69.4778 36.0304 69.5066 36.2275 69.4547 36.48C69.3969 36.7326 69.2757 36.9358 69.0851 37.0959C68.8946 37.2561 68.6521 37.3361 68.3634 37.3361H67.0122L67.3529 35.6486ZM66.7813 38.494H68.2479C68.5828 38.494 68.808 38.5864 68.9177 38.765C69.0274 38.9436 69.0562 39.1653 68.9985 39.4302C68.9465 39.6888 68.8195 39.9106 68.6174 40.0953C68.4153 40.2801 68.1613 40.3725 67.8668 40.3725H66.4117L66.7813 38.494ZM67.913 41.5611C68.4442 41.5611 68.8946 41.4749 69.2526 41.2963C69.6163 41.1177 69.8993 40.8713 70.1129 40.5572C70.3265 40.237 70.4767 39.8674 70.5633 39.4425C70.6383 39.0545 70.6095 38.728 70.4767 38.4509C70.3439 38.1799 70.1649 37.9705 69.9455 37.835C70.0725 37.7796 70.2111 37.6933 70.3554 37.5763C70.4998 37.4593 70.6383 37.3053 70.7596 37.1144C70.8809 36.9235 70.9675 36.6956 71.0194 36.4369C71.1003 36.0366 71.0772 35.6917 70.9386 35.3899C70.8 35.0943 70.5748 34.8602 70.2515 34.7001C69.9339 34.54 69.524 34.4538 69.0274 34.4538H66.2962C66.2327 34.4538 66.175 34.4784 66.1172 34.5277C66.0595 34.5769 66.0249 34.6385 66.0133 34.7124L64.7026 41.3086C64.6911 41.3825 64.7026 41.4441 64.743 41.4934C64.7834 41.5427 64.8296 41.5673 64.8931 41.5673H67.913V41.5611Z" />
<path d="M36.8947 41.5427C36.9986 41.5427 37.1026 41.5858 37.1719 41.6659C37.3047 41.826 37.2873 42.0539 37.1603 42.1894L32.5642 47.0919C32.4949 47.1658 32.4083 47.2027 32.3101 47.2027H4.38671C4.19039 47.2027 4.02872 47.0303 4.02872 46.8209V17.0302C4.02872 16.9317 4.06914 16.8331 4.13265 16.7592L8.72303 11.8629C8.79232 11.789 8.88471 11.752 8.97709 11.752C9.05793 11.752 9.13877 11.7828 9.20806 11.8382C9.29467 11.9121 9.33508 12.0292 9.33508 12.1462V41.0869C9.33508 41.3394 9.52563 41.5427 9.76237 41.5427H36.8947ZM43.8409 4.35515L21.299 4.34283H15.9233C15.8309 4.34283 15.7385 4.37979 15.6692 4.45369L15.6577 4.46601C15.5884 4.53992 15.5538 4.6323 15.5538 4.737C15.5538 4.83555 15.5884 4.93409 15.6577 5.008L20.2538 9.90434C20.3231 9.97824 20.4155 10.0152 20.5079 10.0152C20.5368 10.0152 20.5656 10.009 20.5945 10.0029L38.4653 10.0152C38.702 10.0152 38.8925 10.2184 38.8925 10.471V29.6252C38.8925 29.7237 38.933 29.8223 38.9965 29.8962L43.5869 34.7925C43.6561 34.8664 43.7485 34.9034 43.8409 34.9034C43.9217 34.9034 44.0026 34.8726 44.0719 34.8172C44.1585 34.7432 44.1989 34.6262 44.1989 34.5092V4.737C44.1989 4.5276 44.0372 4.35515 43.8409 4.35515ZM16.3102 22.2037H18.9143C21.8764 22.2037 24.1167 21.8034 25.5718 21.015C27.1077 20.1836 27.8872 19.0195 27.8872 17.5537C27.8872 16.1741 27.1423 15.0778 25.6699 14.2956C24.2899 13.5504 22.1708 13.1747 19.3877 13.1747H16.3102C16.1138 13.1747 15.9522 13.3472 15.9522 13.5566V21.8218C15.9522 22.0374 16.1138 22.2037 16.3102 22.2037ZM15.9522 37.1391C15.9522 37.3485 16.1138 37.5209 16.3102 37.5209H19.2954C24.3823 37.5209 27.7255 37.0159 29.5097 35.9812C31.3458 34.9157 32.2812 33.3452 32.2812 31.3066C32.2755 29.0278 31.1957 27.2109 29.0709 25.899C26.998 24.6303 23.5393 23.9898 18.793 23.9898H16.3102C16.1138 23.9898 15.9522 24.1622 15.9522 24.3716V37.1391Z" />
</svg>
