<svg width="50" height="39" viewBox="0 0 50 39" fill="none" xmlns="http://www.w3.org/2000/svg">
<path d="M23.7765 8.83986C26.2612 8.83986 28.2565 11.242 28.2565 14.1335C28.2565 17.0249 26.2988 19.3826 23.8518 19.427V26.5H49V1.5H17V7.90569L18.5812 8.79537H23.7765V8.83986ZM37.2541 7.86121L37.2165 7.14946L39.5129 6.97153L39.6635 9.64057L39.0612 9.68505L38.9859 8.26156L33.6024 15.4235L33.1506 14.9342L38.4965 7.77225L37.2541 7.86121ZM33.3765 20.3167L39.2871 12.4431L42.3741 17.8256L45.8753 12.3986L46.3647 12.8434L42.3365 19.0712L39.2494 13.6441L33.3765 21.4733L30.9294 17.3808L26.0729 23.4306H46.1765V24.1424H24.6424L31.0424 16.2242L33.3765 20.3167ZM19.8612 3.50178H20.4635V7.95018H19.8612V3.50178Z" fill="#F1F5F8"/>
<path d="M18 8.75348L12.1398 5.5C9.28675 9.73398 9.28675 17.1769 12.1398 21.5L18 18.2465V8.75348Z" fill="#FFAC92"/>
<path d="M17 20.3805V26.5H20V19.5H18.6579L17 20.3805Z" fill="#F1F5F8"/>
<path d="M20 29.8494C20 30.7416 20.6892 31.5 21.5 31.5C22.3108 31.5 23 30.7416 23 29.8494V19.5H20V29.8494Z" fill="#FFAC92"/>
<path d="M8.16896 7.5C5.3434 11.4661 5.288 16.4458 7.94734 20.5L8.77839 20.1475C6.22986 16.3136 6.34066 11.5983 9 7.85255L8.16896 7.5Z" fill="#0A5860"/>
<path d="M5.50183 5.5C2.24454 10.2399 2.16791 17.5777 5.2719 22.5L5.77007 22.0442C2.81936 17.3499 2.896 10.4678 6 5.95576L5.50183 5.5Z" fill="#0A5860"/>
<path d="M4 5.01935L3.57291 4.5C1.3598 6.83713 0.03971 10.2563 0.000883637 13.8918C-0.0379427 17.6139 1.2045 21.1196 3.37878 23.5L3.84469 22.9806C1.78689 20.7301 0.622104 17.3975 0.660931 13.8918C0.660931 10.4294 1.86455 7.18336 4 5.01935Z" fill="#0A5860"/>
<path d="M16.5926 7.31594L12.5065 4.99942L12.3552 5.22216C9.21494 9.76612 9.21494 18.0076 12.3552 22.5961L12.5065 22.8189L16.5926 20.5023V27.0956H20.0733V29.5903C20.0733 30.8822 20.9813 31.9513 22.0785 31.9513C23.1757 31.9513 24.0837 30.8822 24.0837 29.5903V27.0956H29.1913L22.9109 38.5H25.7106L31.537 27.9865V38.5H35.1312V27.9865L40.9577 38.5H43.7574L37.4769 27.0956H50V0.5H16.5926V7.31594ZM12.6578 21.8834C9.85812 17.6067 9.85812 10.1671 12.6578 5.89039L18.4086 9.14244V18.5868L12.6578 21.8834ZM20.0733 26.2937H17.2358V20.1014L18.8248 19.2104H20.1111V26.2937H20.0733ZM23.4784 29.5457C23.4784 30.4367 22.8352 31.194 22.0785 31.194C21.3218 31.194 20.6786 30.4367 20.6786 29.5457V19.2104H23.4784V29.5457ZM24.008 18.4531H19.014V9.27609H24.008C26.1646 9.27609 27.9049 11.3253 27.9049 13.8646C27.9049 16.4039 26.1646 18.4531 24.008 18.4531ZM25.3322 37.6981H24.0459L29.948 27.051H31.2343L25.3322 37.6981ZM34.4502 37.6981H32.1045V27.051H34.4502V37.6981ZM42.5467 37.6981H41.2603L35.3582 27.051H36.6446L42.5467 37.6981ZM17.1979 1.25733H49.3568V26.2937H24.0837V19.2104C26.5429 19.1659 28.5103 16.8048 28.5103 13.9091C28.5103 10.9689 26.5051 8.60786 24.008 8.60786H18.7869L17.1979 7.71689V1.25733Z" fill="#0A5860"/>
<path d="M46.734 23.5V22.8333H26.4439L31.3834 17.1667L33.8532 21L39.7807 13.6667L42.9344 18.75L47 12.9167L46.506 12.5L42.9344 17.5833L39.8567 12.5417L33.8912 19.9167L31.4214 16.0833L25 23.5H46.734Z" fill="#0A5860"/>
<path d="M33.523 15.5L39.2356 7.8737L39.3161 9.38948L40 9.34211L39.8391 6.5L37.3851 6.68949L37.4253 7.49474L38.7529 7.35264L33 14.979L33.523 15.5Z" fill="#0A5860"/>
</svg>
